<svg width="80" height="59" viewBox="0 0 80 59" fill="none" xmlns="http://www.w3.org/2000/svg">
<path d="M79.9634 48.0747C79.9467 48.1799 79.9149 48.282 79.869 48.3781C79.7382 48.6875 79.5248 48.9548 79.2521 49.1503C78.9795 49.3458 78.6583 49.462 78.324 49.4861C77.9898 49.5185 77.6534 49.453 77.3555 49.2976C77.0577 49.1422 76.8112 48.9035 76.6459 48.6104C76.2017 47.909 76.2618 46.5514 77.4292 46.0157C77.67 45.9065 77.931 45.8494 78.1952 45.8478C78.5404 45.8429 78.8797 45.9382 79.1721 46.1222C79.4645 46.3062 79.6976 46.5711 79.8433 46.8849C79.9065 46.9996 79.948 47.1251 79.9656 47.255C79.9784 47.3991 79.9913 47.5218 79.9913 47.6681C79.9956 47.716 79.9956 47.7643 79.9913 47.8122C79.9806 47.9004 79.9806 47.98 79.9634 48.0747ZM79.8239 47.6444C79.8242 47.4311 79.7824 47.2199 79.7009 47.0229C79.6193 46.8259 79.4997 46.647 79.3489 46.4966C79.1981 46.3462 79.0191 46.2272 78.8222 46.1465C78.6253 46.0658 78.4144 46.025 78.2017 46.0264C77.9863 46.0211 77.772 46.0598 77.572 46.1401C77.3719 46.2204 77.1903 46.3408 77.0381 46.4937C76.886 46.6467 76.7664 46.8292 76.6868 47.0299C76.6072 47.2307 76.5692 47.4456 76.5751 47.6616C76.5774 48.0936 76.7507 48.5069 77.057 48.8108C77.3632 49.1146 77.7773 49.284 78.2081 49.2817C78.6389 49.2794 79.0512 49.1057 79.3542 48.7986C79.6573 48.4915 79.8262 48.0764 79.8239 47.6444Z" fill="#AC332D"/>
<path d="M24.2826 0.000595296C24.3298 0.084506 24.4221 0.0974154 24.4972 0.14475C24.5931 0.208306 24.6724 0.293916 24.7285 0.394445C24.7847 0.494973 24.8161 0.607507 24.8201 0.722665C24.8241 0.837823 24.8006 0.95227 24.7515 1.05646C24.7024 1.16066 24.6292 1.25158 24.538 1.32165C24.3985 1.4295 24.2252 1.48379 24.0492 1.47471C23.8733 1.46564 23.7065 1.3938 23.5788 1.27217C23.4528 1.1478 23.3759 0.982043 23.3621 0.805354C23.3483 0.628666 23.3986 0.452921 23.5037 0.31042C23.569 0.223657 23.6507 0.150563 23.744 0.0952638C23.7912 0.0672936 23.8599 0.0629904 23.877 -0.00585938L24.2826 0.000595296Z" fill="#FDB913"/>
<path d="M50.6423 0C50.6809 0.0882138 50.7775 0.0989716 50.8462 0.150609C50.9398 0.217152 51.0164 0.305042 51.0696 0.407052C51.1228 0.509062 51.1511 0.622277 51.1522 0.737385C51.1532 0.852494 51.127 0.966207 51.0757 1.06917C51.0243 1.17214 50.9493 1.26142 50.8569 1.32966C50.7588 1.41143 50.6394 1.46339 50.5128 1.47939C50.3862 1.4954 50.2576 1.47481 50.1423 1.42003C50.0193 1.37167 49.912 1.29027 49.8321 1.18475C49.7522 1.07923 49.7029 0.953684 49.6895 0.821895C49.6745 0.684298 49.6998 0.545287 49.7623 0.421864C49.8248 0.298441 49.9218 0.195955 50.0415 0.126942C50.1037 0.0839107 50.1895 0.0774561 50.2281 0H50.6423Z" fill="#FDB913"/>
<path d="M67.7579 59.0014C67.6914 59.0014 67.8266 58.9842 67.7579 58.9842H62.3052C62.2672 58.9855 62.2292 58.9891 62.1915 58.9949C62.1765 58.9828 62.1644 58.9674 62.1562 58.9498C62.148 58.9323 62.144 58.9131 62.1443 58.8938C62.1443 58.3731 62.1443 57.8546 62.1443 57.3339C62.1443 57.2328 62.1658 57.2134 62.2623 57.2091C62.3589 57.2048 62.4383 57.2091 62.5263 57.2091H72.3586C72.4058 57.2091 72.4552 57.2091 72.5045 57.2091C72.6032 57.2034 72.6963 57.1614 72.766 57.0911C72.8357 57.0209 72.8771 56.9273 72.8822 56.8283C72.8854 56.7695 72.8854 56.7106 72.8822 56.6519C72.8822 55.9655 72.8693 55.277 72.8822 54.5928C72.8951 54.1367 72.6569 53.9108 72.2385 53.9065C72.1119 53.9065 71.9852 53.9065 71.8565 53.9065C69.4131 53.9065 66.9675 53.9065 64.5198 53.9065C64.0799 53.9065 63.64 53.8871 63.2022 53.8591C63.0146 53.8534 62.8326 53.7938 62.6778 53.6873C62.523 53.5809 62.4019 53.4322 62.3288 53.2589C62.224 53.0261 62.1629 52.7759 62.1486 52.5209C62.1486 52.4241 62.1486 52.3251 62.1486 52.2261C62.1486 51.1503 62.1486 50.0746 62.1486 48.9988C62.1446 48.7926 62.1655 48.5867 62.2108 48.3856C62.256 48.1843 62.3412 47.9941 62.4614 47.8267C62.5816 47.6592 62.7343 47.5178 62.9104 47.4109C63.2479 47.2098 63.6264 47.0877 64.0176 47.0538C64.2222 47.0319 64.4278 47.0218 64.6335 47.0236H74.7577C74.9723 47.0236 74.9723 47.0236 74.9723 47.2388C74.9723 47.682 74.9723 48.1238 74.9723 48.5642C74.9723 48.7019 74.9551 48.7148 74.8199 48.7169C74.7427 48.7169 74.6633 48.7169 74.586 48.7169H65.0477C64.949 48.7169 64.8502 48.7169 64.7537 48.7169C64.6541 48.7153 64.5575 48.751 64.4829 48.8171C64.4083 48.8832 64.3609 48.9748 64.3503 49.0741C64.3363 49.1406 64.3298 49.2084 64.3309 49.2763V51.7205C64.3309 51.9356 64.3846 52.0088 64.5927 52.0841C64.6678 52.1071 64.7461 52.1172 64.8245 52.1142H73.071H73.5989C73.7355 52.1174 73.8715 52.1347 74.0045 52.1659C74.7041 52.3208 75.0667 52.7575 75.0774 53.4719C75.0774 53.9538 75.0774 54.4336 75.0774 54.9156C75.0774 55.561 75.0774 56.228 75.0667 56.8864C75.0589 57.2241 74.9995 57.5586 74.8907 57.8782C74.6633 58.5581 74.1697 58.8959 73.4788 58.9842H67.7579C67.642 58.9842 67.8759 58.9842 67.7579 58.9842" fill="#AC332D"/>
<path d="M39.5956 58.9843C38.6385 58.9843 40.5526 58.9843 39.5956 58.9843C39.499 58.9843 39.6922 58.9972 39.5956 59.0037C39.499 59.0101 39.6728 58.9865 39.5956 58.9865H33.7116C33.6537 58.9865 33.5957 58.9865 33.5378 58.9994C33.4863 58.9563 33.4927 58.8961 33.4927 58.838V57.3663C33.4917 57.347 33.4917 57.3276 33.4927 57.3083C33.4927 57.2523 33.5185 57.2157 33.5786 57.2136H33.7824H43.6427C43.7006 57.2136 43.7586 57.2136 43.8186 57.2136C43.9229 57.2154 44.0238 57.1764 44.0999 57.1049C44.176 57.0334 44.2214 56.9351 44.2264 56.8306C44.2264 56.7833 44.2264 56.7338 44.2264 56.6843V54.565C44.2285 54.5263 44.2285 54.4875 44.2264 54.4488C44.226 54.3141 44.1742 54.1847 44.0816 54.087C43.989 53.9894 43.8627 53.931 43.7285 53.9239C43.5925 53.9081 43.4556 53.9009 43.3187 53.9023H39.6235C38.5978 53.9023 37.5699 53.9023 36.5442 53.9023C35.9004 53.9023 35.2566 53.8744 34.6129 53.855C34.4002 53.8581 34.192 53.7939 34.0178 53.6714C33.8437 53.549 33.7125 53.3745 33.643 53.173C33.5571 52.9638 33.5099 52.7407 33.5035 52.5146C33.5035 52.3296 33.5035 52.1424 33.5035 51.9573C33.5035 50.9569 33.5035 49.9564 33.5035 48.9559C33.4998 48.7598 33.52 48.564 33.5636 48.3728C33.6126 48.1518 33.7095 47.9444 33.8475 47.7651C33.9854 47.5859 34.161 47.4393 34.3618 47.3358C34.6747 47.1715 35.0166 47.0699 35.3682 47.0367C35.5621 47.016 35.7569 47.0059 35.9519 47.0066H45.9881C46.3594 47.0066 46.3207 46.9743 46.3229 47.3336C46.3229 47.7446 46.3229 48.1577 46.3229 48.5686C46.3229 48.6698 46.3014 48.687 46.2027 48.6913C46.104 48.6956 46.0267 48.6913 45.9388 48.6913H36.3875C36.291 48.6913 36.1922 48.6913 36.0957 48.6913C35.9964 48.6915 35.9006 48.7278 35.826 48.7935C35.7514 48.8591 35.7031 48.9498 35.6901 49.0484C35.6787 49.1196 35.6744 49.1916 35.6772 49.2636C35.6772 50.0783 35.6772 50.8923 35.6772 51.7056C35.6772 51.9208 35.7287 51.9939 35.939 52.0671C36.0331 52.0941 36.1311 52.1042 36.2287 52.0972H44.5611C44.8248 52.0806 45.0896 52.0986 45.3487 52.151C45.4345 52.1746 45.5203 52.194 45.6019 52.2241C45.8265 52.2994 46.0237 52.4401 46.1682 52.6283C46.3126 52.8164 46.3979 53.0435 46.413 53.2805C46.4173 53.3587 46.4173 53.437 46.413 53.5151C46.413 54.6231 46.4023 55.7312 46.3937 56.8392C46.3922 57.1931 46.335 57.5446 46.2242 57.8806C46.0096 58.5626 45.5032 58.8983 44.8143 58.9865H39.5956C39.484 58.9757 39.6986 58.9822 39.5956 58.9843Z" fill="#AC332D"/>
<path d="M29.2696 55.758V55.3772C29.2696 52.6992 29.2696 50.0213 29.2696 47.3433C29.2696 46.9625 29.2181 46.999 29.6108 46.9969C30.1 46.9969 30.5893 46.9969 31.0785 46.9969C31.1818 46.9793 31.288 46.9959 31.3811 47.0442V58.5658C31.3811 58.9596 31.424 58.9122 31.0399 58.9144H29.4563C29.1065 58.9144 29.1988 58.9617 28.9498 58.6992L26.3555 56.0162L21.0294 50.5039C20.9565 50.4286 20.8814 50.3555 20.8149 50.2888C20.7398 50.3146 20.7591 50.3705 20.7569 50.4157C20.7569 50.5039 20.7569 50.5921 20.7569 50.6804C20.7569 53.3096 20.7569 55.938 20.7569 58.5658C20.7569 58.9596 20.7977 58.9165 20.42 58.9187H18.6475C18.6353 58.9196 18.6229 58.9179 18.6114 58.9137C18.5998 58.9096 18.5892 58.903 18.5803 58.8945C18.5714 58.886 18.5644 58.8757 18.5597 58.8643C18.555 58.8529 18.5528 58.8406 18.5531 58.8283C18.5531 58.7616 18.5531 58.6928 18.5531 58.6239V47.2594C18.5531 46.9345 18.5295 46.9539 18.8535 46.956C19.3535 46.956 19.8514 46.956 20.3556 46.956C20.432 46.9519 20.5082 46.9651 20.5788 46.9945C20.6493 47.0239 20.7124 47.0689 20.7634 47.126C22.0165 48.4083 23.2726 49.687 24.5315 50.9622C26.0164 52.4697 27.4999 53.9758 28.982 55.4805C29.0692 55.5816 29.1655 55.6745 29.2696 55.758Z" fill="#AC332D"/>
<path d="M37.4004 43.2596C36.7687 43.2744 36.1408 43.158 35.5562 42.9177C34.9716 42.6774 34.443 42.3184 34.0035 41.8633C33.6199 41.4984 33.2942 41.0769 33.0378 40.6132C32.5822 39.7279 32.4118 38.7226 32.5502 37.736C32.6886 36.7495 33.1289 35.8303 33.8103 35.1052C34.3141 34.5658 34.9428 34.1594 35.6408 33.9219C36.6229 33.5689 37.6881 33.5194 38.6986 33.7799C39.3424 33.9448 39.9334 34.2722 40.4153 34.7309C40.6814 34.9769 40.9276 35.2438 41.1513 35.5291C41.8135 36.3661 42.1634 37.4086 42.1406 38.4767C42.1366 39.6378 41.6799 40.7513 40.8681 41.5793C40.7543 41.6998 40.6406 41.8224 40.529 41.945C39.8848 42.6645 39.0032 43.1268 38.0463 43.2467C37.9883 43.2467 37.9282 43.2575 37.8703 43.2596H37.4004Z" fill="#AC332D"/>
<path d="M0 46.9643C0.0879804 46.9643 0.145919 46.9643 0.214586 46.9643C0.83045 46.9643 1.44846 46.9643 2.06432 46.9643C2.12143 46.9581 2.17888 46.9724 2.22643 47.0048C2.27398 47.0371 2.30855 47.0853 2.32397 47.1407C2.71881 48.0788 3.11651 49.0169 3.51707 49.955L6.13074 56.0912C6.16078 56.1622 6.19297 56.2332 6.23374 56.3236C6.31054 56.2503 6.36425 56.156 6.38824 56.0525C6.89895 54.8648 7.40753 53.6764 7.91395 52.4873L10.1456 47.272C10.1693 47.2182 10.1929 47.1644 10.2143 47.1106C10.2261 47.0782 10.2483 47.0506 10.2775 47.0323C10.3066 47.014 10.341 47.006 10.3753 47.0095H12.3988C12.416 47.0095 12.4331 47.0267 12.4653 47.0418C12.4527 47.1244 12.4266 47.2043 12.3881 47.2784L9.87098 53.4211C9.17 55.1424 8.46901 56.8636 7.76803 58.5849C7.74013 58.658 7.70365 58.729 7.6779 58.8C7.66928 58.8332 7.64878 58.8621 7.62028 58.8812C7.59179 58.9002 7.55731 58.9081 7.5234 58.9033H5.15007C4.81317 58.9033 4.87326 58.9463 4.7488 58.6408C4.35396 57.6812 3.96198 56.7195 3.57286 55.7556L0.118023 47.2763C0.0815429 47.1859 0.0493549 47.0955 0 46.9643Z" fill="#AC332D"/>
<path d="M48.4107 31.3299C48.3935 32.4186 48.1188 33.3222 47.4901 34.0968C46.9422 34.7695 46.1949 35.2497 45.3565 35.4679C44.5181 35.6861 43.6322 35.6309 42.8271 35.3103C41.8379 34.9144 40.6684 33.8171 40.3358 32.4724C40.165 31.8151 40.1569 31.126 40.3122 30.465C40.464 29.8318 40.8002 29.2581 41.2778 28.8169L41.707 28.4145C42.1126 28.0286 42.5988 27.738 43.1303 27.5639C43.6618 27.3897 44.2253 27.3363 44.7799 27.4076C45.5427 27.4881 46.2643 27.7944 46.8528 28.2876C47.0889 28.4788 47.3099 28.6882 47.5137 28.9137C47.9553 29.4036 48.244 30.0124 48.3442 30.6651C48.3896 30.8837 48.4119 31.1066 48.4107 31.3299Z" fill="#AC332D"/>
<path d="M34.6321 31.5295C34.624 32.5481 34.218 33.5229 33.5012 34.2447C33.0344 34.7653 32.4439 35.159 31.7845 35.3894C31.2294 35.5767 30.6403 35.6411 30.0579 35.5781C29.4755 35.515 28.9137 35.326 28.4112 35.0241C27.9087 34.7222 27.4776 34.3145 27.1475 33.8293C26.8174 33.3441 26.5962 32.7929 26.4993 32.2137C26.3878 31.5844 26.409 30.9387 26.5615 30.3181C26.6892 29.8122 26.9373 29.3449 27.2847 28.9562C27.5485 28.6533 27.8442 28.3799 28.1666 28.1408C28.9682 27.5466 29.9672 27.2847 30.9562 27.4092C31.7889 27.5022 32.5672 27.8701 33.1686 28.4549C33.2545 28.5345 33.336 28.6206 33.424 28.698C34.248 29.4123 34.6343 30.3181 34.6321 31.5295Z" fill="#AC332D"/>
<path d="M54.3397 51.3689C54.4251 51.3126 54.4981 51.2394 54.5542 51.1537C55.5821 49.8951 56.6143 48.6386 57.6314 47.3691C57.6991 47.2708 57.7915 47.1921 57.8993 47.1411C58.0071 47.0901 58.1264 47.0686 58.2451 47.0787C58.8889 47.1002 59.5326 47.0787 60.1764 47.0787C60.257 47.0638 60.3402 47.0744 60.4146 47.1088C60.3689 47.1954 60.3103 47.2745 60.2408 47.3433L57.5306 50.5621C56.8417 51.3796 56.1529 52.1929 55.4662 53.0127C55.228 53.2967 55.271 53.1676 55.271 53.5635C55.271 55.2395 55.271 56.9177 55.271 58.5938C55.271 58.9574 55.3032 58.9165 54.9362 58.9187H53.3504C53.3359 58.921 53.321 58.9199 53.3069 58.9157C53.2929 58.9115 53.2799 58.9042 53.269 58.8943C53.2581 58.8844 53.2495 58.8721 53.2439 58.8585C53.2383 58.8449 53.2359 58.8301 53.2367 58.8154C53.2367 58.7272 53.2367 58.639 53.2367 58.5508V53.7485C53.2324 53.6804 53.2324 53.6122 53.2367 53.5441C53.2442 53.4715 53.2351 53.3982 53.2102 53.3296C53.1853 53.261 53.1452 53.199 53.0929 53.1482C52.3075 52.2338 51.5286 51.3129 50.7496 50.3964L48.0845 47.2616C48.0394 47.2099 47.9979 47.1552 47.96 47.098C47.9563 47.092 47.9542 47.0852 47.9539 47.0781C47.9536 47.071 47.9552 47.064 47.9584 47.0577C47.9617 47.0514 47.9665 47.0461 47.9724 47.0422C47.9783 47.0383 47.9851 47.0361 47.9922 47.0357C48.0408 47.0324 48.0895 47.0324 48.1381 47.0357C48.8613 47.0357 49.5866 47.0357 50.3097 47.0357C50.3815 47.031 50.4534 47.0445 50.5186 47.075C50.5839 47.1054 50.6404 47.1518 50.6831 47.2099C51.7632 48.4507 52.8454 49.69 53.9298 50.9278C54.0577 51.0827 54.1946 51.23 54.3397 51.3689Z" fill="#AC332D"/>
<path d="M50.3098 22.2389C51.1347 22.2264 51.9344 22.5234 52.5523 23.0715C52.6874 23.1877 52.8162 23.3082 52.9407 23.433C53.4473 23.9334 53.7593 24.5987 53.8205 25.3091C53.8653 25.7405 53.8414 26.1762 53.7496 26.6001C53.6041 27.2908 53.253 27.921 52.7427 28.4073C52.2323 28.8937 51.5868 29.2133 50.8914 29.3239C50.3403 29.4241 49.7731 29.3864 49.2401 29.2141C48.707 29.0419 48.2246 28.7404 47.8356 28.3364C47.3042 27.8363 46.9393 27.1842 46.7906 26.4688C46.6951 25.996 46.6951 25.5087 46.7906 25.0359C46.8989 24.4733 47.1776 23.9578 47.5889 23.5599C47.7584 23.3964 47.9258 23.2329 48.1017 23.0758C48.7033 22.5229 49.4939 22.2233 50.3098 22.2389Z" fill="#AC332D"/>
<path d="M24.4822 22.2391C24.919 22.2292 25.3532 22.308 25.7589 22.4707C26.1645 22.6333 26.5332 22.8766 26.8426 23.1858L27.1194 23.4461C27.4904 23.7847 27.7714 24.2107 27.937 24.6855C28.1026 25.1604 28.1476 25.6691 28.0679 26.1657C27.9413 27.2695 27.3641 28.1021 26.4886 28.7476C26.1305 29.0064 25.7248 29.1915 25.295 29.2919C24.8651 29.3924 24.4196 29.4063 23.9843 29.3328C23.3211 29.2444 22.699 28.9606 22.1968 28.5174C21.5025 27.9249 21.0705 27.081 20.9951 26.17C20.9339 25.6721 20.9748 25.1669 21.1153 24.6854C21.2552 24.2234 21.5073 23.8034 21.8492 23.4633C21.9543 23.3601 22.0638 23.2482 22.1668 23.1578C22.79 22.5612 23.6206 22.2316 24.4822 22.2391Z" fill="#AC332D"/>
<path d="M33.9047 24.5885C33.913 23.799 34.1995 23.0378 34.7136 22.4397C35.2276 21.8416 35.9361 21.4451 36.7136 21.3202C37.3998 21.1809 38.1121 21.256 38.7543 21.5354C38.9776 21.6348 39.1863 21.7643 39.3745 21.9205C39.6851 22.1782 39.9601 22.4763 40.1921 22.807C40.6167 23.421 40.8168 24.1632 40.7585 24.9081C40.7003 25.6529 40.3872 26.3548 39.8723 26.8949C39.7693 27.0025 39.6706 27.1101 39.5676 27.2155C39.2415 27.564 38.8348 27.8267 38.3835 27.9801C37.9321 28.1336 37.45 28.1732 36.9797 28.0955C35.8016 27.9556 34.9669 27.2973 34.351 26.3248C34.0351 25.8026 33.8799 25.1986 33.9047 24.5885Z" fill="#F7941D"/>
<path d="M19.1174 17.1669C19.4786 17.1504 19.8395 17.2056 20.1794 17.3293C20.5193 17.453 20.8315 17.6427 21.098 17.8877C21.2225 17.9996 21.3448 18.1028 21.465 18.2276C21.748 18.4932 21.9668 18.82 22.1047 19.1831C22.2427 19.5463 22.2962 19.9362 22.2611 20.3232C22.2387 20.8201 22.0952 21.304 21.843 21.7323C21.5909 22.1607 21.2378 22.5205 20.8148 22.7803C20.3982 23.071 19.9115 23.2443 19.4053 23.2822C18.8992 23.32 18.3922 23.221 17.9372 22.9955C16.8278 22.4856 16.257 21.5733 16.184 20.3534C16.1548 19.9911 16.1918 19.6265 16.2935 19.2776C16.3552 19.048 16.4538 18.83 16.5853 18.6321C17.0405 17.9245 17.747 17.4168 18.5616 17.2121C18.7452 17.1806 18.9312 17.1655 19.1174 17.1669Z" fill="#AC332D"/>
<path d="M58.6294 20.1843C58.6511 20.9666 58.3663 21.7264 57.8361 22.3007C57.3058 22.875 56.5722 23.2182 55.7926 23.2567C55.3119 23.3009 54.8282 23.2131 54.3935 23.0028C53.4665 22.5273 52.827 21.8087 52.6146 20.7631C52.5182 20.2993 52.5329 19.8193 52.6575 19.3624C52.7658 18.963 52.9784 18.5999 53.2733 18.3103C53.4472 18.1382 53.6274 17.9703 53.812 17.809C54.1214 17.5349 54.4937 17.342 54.8956 17.2474C55.3189 17.1378 55.7613 17.1248 56.1902 17.2093C56.6191 17.2938 57.0237 17.4738 57.3741 17.7358C57.5926 17.8992 57.7939 18.0844 57.9749 18.2888C58.3577 18.7141 58.5847 19.2574 58.6187 19.8293C58.6359 19.9498 58.6294 20.0681 58.6294 20.1843Z" fill="#AC332D"/>
<path d="M42.6468 16.4055C43.3376 16.3849 44.0108 16.6253 44.5331 17.079C44.7153 17.228 44.8847 17.3921 45.0395 17.5695C45.3727 17.9522 45.5802 18.4285 45.6339 18.9336C45.6988 19.3618 45.6752 19.7988 45.5645 20.2174C45.4537 20.6361 45.2582 21.0274 44.9901 21.367C44.5617 21.9101 43.9521 22.2799 43.2734 22.4084C42.5981 22.5633 41.8896 22.4646 41.2821 22.1308C40.8913 21.9294 40.5479 21.6468 40.2748 21.3017C40.0018 20.9567 39.8052 20.5572 39.6984 20.1299C39.5442 19.5573 39.5697 18.9511 39.7714 18.3936C39.8917 18.0608 40.087 17.7604 40.3422 17.5157C40.4817 17.378 40.6211 17.2403 40.7714 17.1091C41.2811 16.6383 41.9541 16.3858 42.6468 16.4055Z" fill="#F7941D"/>
<path d="M31.8297 16.4058C32.1994 16.3946 32.5675 16.4588 32.9116 16.5945C33.2558 16.7302 33.5689 16.9347 33.8318 17.1954C33.9305 17.2901 34.0292 17.3848 34.1301 17.4773C34.5829 17.9073 34.8573 18.4928 34.8983 19.1168C34.9503 19.8123 34.7685 20.5053 34.3819 21.0852C33.9953 21.665 33.4262 22.0984 32.7653 22.3161C32.247 22.4923 31.6899 22.5198 31.1568 22.3955C30.6237 22.2712 30.1358 22 29.7482 21.6126C29.2354 21.1289 28.9216 20.4704 28.8684 19.7665C28.8233 19.3955 28.8407 19.0195 28.9199 18.6542C28.9697 18.4138 29.0589 18.1833 29.1839 17.9721C29.5879 17.2908 30.2232 16.7783 30.9735 16.5284C31.248 16.4311 31.539 16.3895 31.8297 16.4058Z" fill="#F7941D"/>
<path d="M16.358 52.971V58.522C16.358 58.5908 16.358 58.6597 16.358 58.7371C16.358 58.9157 16.3452 58.9286 16.1821 58.9286H14.3323C14.1993 58.9286 14.1821 58.9093 14.1778 58.7759C14.1778 58.6984 14.1778 58.6188 14.1778 58.5413C14.1778 54.8235 14.1778 51.1056 14.1778 47.3877C14.1778 46.9574 14.1263 47.0047 14.5727 47.0026C15.0619 47.0026 15.5512 47.0026 16.0404 47.0026C16.1177 47.0026 16.1971 47.0026 16.2743 47.0026C16.2943 47.0031 16.3133 47.0111 16.3277 47.0251C16.342 47.039 16.3505 47.0579 16.3516 47.0779C16.3516 47.1639 16.3516 47.2521 16.3516 47.3404L16.358 52.971Z" fill="#F7941D"/>
<path d="M27.1152 17.3794C26.4975 17.3922 25.8959 17.1819 25.4201 16.787C24.9442 16.392 24.6258 15.8386 24.523 15.2279C24.4409 14.8032 24.457 14.3652 24.5702 13.9477C24.6686 13.5873 24.8578 13.2584 25.1195 12.9924C25.2948 12.8076 25.489 12.6417 25.6989 12.4976C26.1741 12.179 26.7434 12.0323 27.3129 12.0816C27.8823 12.1309 28.4181 12.3732 28.8319 12.7687L29.0679 12.9838C29.3314 13.2266 29.5334 13.529 29.6569 13.8658C29.7804 14.2026 29.822 14.5641 29.7782 14.9202C29.7421 15.3172 29.6187 15.7012 29.4169 16.0446C29.215 16.388 28.9397 16.6822 28.6108 16.9061C28.1807 17.2302 27.653 17.3972 27.1152 17.3794Z" fill="#F7941D"/>
<path d="M47.239 17.3897C46.1811 17.437 45.0352 16.3268 44.8485 15.18C44.7464 14.6869 44.7965 14.1743 44.9922 13.7105C45.0763 13.5118 45.1939 13.3291 45.3399 13.1705C45.5244 12.9811 45.7111 12.7939 45.9128 12.624C46.2503 12.3707 46.6433 12.202 47.0591 12.1322C47.4749 12.0623 47.9013 12.0932 48.3027 12.2223C48.7041 12.3514 49.0689 12.5749 49.3665 12.8743C49.6641 13.1736 49.886 13.54 50.0136 13.9429C50.1284 14.34 50.1521 14.758 50.083 15.1656C50.0139 15.5733 49.8537 15.9599 49.6144 16.2967C49.0994 17.0304 48.3698 17.3681 47.239 17.3897Z" fill="#F7941D"/>
<path d="M23.1282 12.8414C22.1153 12.8651 21.0531 11.9808 20.9823 10.7544C20.9564 10.4606 20.9803 10.1645 21.0531 9.87875C21.1087 9.66971 21.205 9.47375 21.3364 9.30214C21.57 8.98546 21.8714 8.72522 22.2183 8.54049C22.5729 8.34634 22.9762 8.25985 23.3789 8.29156C23.7817 8.32327 24.1665 8.47181 24.4865 8.71907C24.6818 8.86676 24.8628 9.03244 25.0273 9.21392C25.2187 9.42544 25.3605 9.67728 25.4422 9.95093C25.5239 10.2246 25.5434 10.5131 25.4994 10.7953C25.4334 11.274 25.2248 11.7215 24.9009 12.0794C24.5769 12.4372 24.1528 12.6885 23.684 12.8006C23.5001 12.8293 23.3142 12.843 23.1282 12.8414Z" fill="#F7941D"/>
<path d="M53.5822 10.5436C53.5952 11.068 53.4249 11.5804 53.1008 11.9922C52.7767 12.4039 52.3192 12.6891 51.8076 12.7984C51.337 12.9128 50.8414 12.8588 50.4063 12.6456C50.0748 12.4959 49.7832 12.2697 49.5554 11.9855C49.3276 11.7014 49.1699 11.3673 49.0952 11.0105C48.9428 10.2488 49.0952 9.56892 49.7089 9.03748C49.8269 8.93421 49.9235 8.82233 50.0608 8.72981C50.3876 8.47532 50.7826 8.32426 51.1954 8.2959C51.6082 8.26754 52.02 8.36318 52.3784 8.57059C52.689 8.73866 52.9604 8.97117 53.1745 9.25264C53.4625 9.61889 53.6074 10.0779 53.5822 10.5436Z" fill="#F7941D"/>
<path d="M59.7236 14.1841C60.2056 14.1736 60.6759 14.3335 61.0519 14.636C61.2082 14.7552 61.3519 14.89 61.4811 15.0383C61.7589 15.3588 61.9221 15.7632 61.9446 16.1872C61.9894 16.6238 61.9068 17.064 61.7068 17.4543C61.5068 17.8447 61.198 18.1684 60.818 18.3861C60.4815 18.5665 60.1052 18.6592 59.7236 18.6555C59.342 18.6518 58.9675 18.552 58.6345 18.3651C58.3015 18.1782 58.0207 17.9104 57.8181 17.5862C57.6154 17.262 57.4974 16.8919 57.4748 16.51C57.4486 16.2307 57.4851 15.9492 57.5817 15.6859C57.6782 15.4227 57.8323 15.1845 58.0327 14.9888C58.1314 14.892 58.228 14.7973 58.331 14.707C58.7108 14.3595 59.2096 14.1722 59.7236 14.1841Z" fill="#AC332D"/>
<path d="M17.315 16.3856C17.313 16.9153 17.1287 17.4281 16.7933 17.8374C16.4578 18.2466 15.9918 18.5272 15.4738 18.6318C14.9014 18.741 14.3092 18.6186 13.8266 18.2912C13.3441 17.9638 13.0105 17.4581 12.8988 16.8847C12.8322 16.5582 12.8322 16.2215 12.8988 15.895C12.9262 15.7402 12.9776 15.5907 13.0511 15.4518C13.4996 14.6837 14.1241 14.206 15.0532 14.1824C15.5868 14.168 16.1046 14.3643 16.4953 14.7289C16.5596 14.787 16.6219 14.8515 16.6862 14.9096C16.8956 15.0919 17.0609 15.3195 17.1698 15.5751C17.2787 15.8308 17.3284 16.1079 17.315 16.3856Z" fill="#AC332D"/>
<path d="M37.2608 11.6627C37.7283 11.6512 38.1857 11.7996 38.5578 12.0835C38.9299 12.3674 39.1945 12.7699 39.308 13.2248C39.3871 13.5348 39.3877 13.8598 39.3097 14.1702C39.2318 14.4805 39.0778 14.7664 38.8616 15.002C38.7929 15.0837 38.7178 15.159 38.647 15.2365C38.4497 15.4424 38.2053 15.5971 37.935 15.6871C37.6647 15.777 37.3766 15.7996 37.0956 15.7528C36.7682 15.7115 36.4554 15.5922 36.1833 15.4051C35.9112 15.218 35.6876 14.9684 35.5312 14.6771C35.4009 14.4464 35.3173 14.1923 35.285 13.9292C35.2528 13.6661 35.2726 13.3992 35.3434 13.1438C35.4141 12.8884 35.5344 12.6495 35.6974 12.4408C35.8603 12.2321 36.0627 12.0576 36.293 11.9274C36.5902 11.7637 36.9219 11.673 37.2608 11.6627Z" fill="#FDB913"/>
<path d="M61.3589 12.6945C61.3705 12.4933 61.4237 12.2967 61.5149 12.1171C61.6061 11.9375 61.7335 11.7788 61.8889 11.651L62.1035 11.4531C62.3821 11.2195 62.7248 11.0759 63.0864 11.0413C63.448 11.0068 63.8116 11.0828 64.1292 11.2594C64.3841 11.4068 64.6085 11.6018 64.7901 11.8339C64.9967 12.0986 65.1126 12.4231 65.1206 12.7591C65.1611 13.198 65.0464 13.6372 64.7965 13.9999C64.5466 14.3625 64.1775 14.6255 63.7537 14.7428C63.3849 14.8482 62.9925 14.8354 62.6314 14.7062C61.8717 14.4265 61.3589 13.6842 61.3589 12.6945Z" fill="#AC332D"/>
<path d="M13.4309 12.8896C13.4248 13.3936 13.2231 13.8752 12.8685 14.2324C12.5139 14.5895 12.0344 14.794 11.5318 14.8024C11.2797 14.7993 11.0306 14.746 10.7993 14.6454C10.5679 14.5448 10.3588 14.3991 10.1842 14.2166C10.0096 14.0342 9.87303 13.8187 9.7824 13.5827C9.69177 13.3467 9.64891 13.0951 9.65634 12.8423C9.65634 11.844 10.6155 11.0199 11.5447 11.0156C12.4739 11.0113 13.5189 11.943 13.4309 12.8896Z" fill="#AC332D"/>
<path d="M32.1365 10.457C32.0486 9.38118 33.2781 8.33552 34.482 8.73571C34.5649 8.76493 34.6453 8.80091 34.7223 8.84329C35.0216 9.01288 35.2824 9.24293 35.4884 9.51888C35.6824 9.78157 35.7822 10.1023 35.7716 10.429C35.7742 10.8849 35.6101 11.326 35.3104 11.6689C35.0108 12.0118 34.5962 12.2328 34.1451 12.2901C33.8969 12.3225 33.6446 12.3021 33.4048 12.2301C33.1651 12.1581 32.9431 12.0362 32.7536 11.8723C32.564 11.7084 32.411 11.5062 32.3047 11.279C32.1984 11.0518 32.1411 10.8047 32.1365 10.5538V10.457Z" fill="#FDB913"/>
<path d="M38.778 10.4612C38.766 10.2344 38.8053 10.0079 38.893 9.79847C38.9807 9.58908 39.1145 9.40228 39.2844 9.25205C39.4161 9.12114 39.5597 9.00299 39.7136 8.8992C40.027 8.71428 40.3897 8.63075 40.7522 8.66002C41.1147 8.68928 41.4594 8.8299 41.7393 9.06272C42.118 9.35916 42.3638 9.79431 42.4226 10.2725C42.4813 10.7506 42.3482 11.2326 42.0526 11.6123C41.7569 11.9921 41.3229 12.2385 40.846 12.2974C40.3692 12.3563 39.8885 12.2229 39.5097 11.9264C39.2792 11.7593 39.0923 11.5388 38.9649 11.2837C38.8375 11.0286 38.7734 10.7465 38.778 10.4612Z" fill="#FDB913"/>
<path d="M56.5844 7.28152C56.591 7.56348 56.5225 7.84212 56.386 8.08871C56.2495 8.3353 56.0498 8.5409 55.8076 8.68433C55.5824 8.82392 55.3277 8.90849 55.064 8.9312C54.8002 8.95392 54.5348 8.91415 54.2892 8.81511C54.0436 8.71606 53.8247 8.56052 53.6501 8.36102C53.4755 8.16153 53.3501 7.92367 53.284 7.66665C53.2068 7.39158 53.2068 7.10046 53.284 6.82539C53.302 6.73929 53.3316 6.65605 53.372 6.57796C53.4915 6.34725 53.6569 6.1436 53.8581 5.97964C54.0592 5.81568 54.2919 5.69491 54.5415 5.62482C54.7354 5.57106 54.938 5.55688 55.1374 5.58312C55.3368 5.60936 55.529 5.67549 55.7024 5.77758C56.0969 5.98373 56.3951 6.33675 56.5329 6.76084C56.57 6.93183 56.5873 7.10655 56.5844 7.28152Z" fill="#F7941D"/>
<path d="M19.6819 5.59441C20.0109 5.58408 20.3324 5.69508 20.5853 5.90639C20.7391 6.02853 20.8826 6.1631 21.0145 6.30873C21.2213 6.54771 21.3362 6.85292 21.3385 7.16935C21.3454 7.40753 21.3029 7.64455 21.2137 7.86541C21.1245 8.08627 20.9905 8.28615 20.8203 8.4524C20.65 8.61865 20.4472 8.74765 20.2246 8.83122C20.0021 8.9148 19.7647 8.95114 19.5274 8.93793C19.1377 8.91378 18.7693 8.75135 18.4882 8.47973C18.2071 8.20812 18.0316 7.84504 17.9931 7.45551C17.9625 7.22159 17.9786 6.98391 18.0403 6.75625C18.1552 6.41278 18.3763 6.11496 18.6715 5.90603C18.9667 5.69711 19.3206 5.58795 19.6819 5.59441Z" fill="#F7941D"/>
<path d="M56.2003 4.43713C56.1949 4.27385 56.2267 4.1115 56.2933 3.96238C56.3599 3.81326 56.4594 3.6813 56.5844 3.57651C56.6488 3.51842 56.711 3.45387 56.7775 3.39793C56.9763 3.23698 57.2183 3.13897 57.4728 3.11636C57.7273 3.09376 57.9828 3.14758 58.2067 3.27099C58.4116 3.38768 58.5899 3.54597 58.7303 3.73572C58.888 3.95077 58.9675 4.21349 58.9556 4.48016C58.9631 4.78702 58.8676 5.08752 58.6843 5.33336C58.501 5.5792 58.2406 5.7561 57.9449 5.83564C57.6709 5.91478 57.3788 5.9027 57.1123 5.80122C56.8379 5.69684 56.6027 5.50945 56.4393 5.26504C56.2759 5.02062 56.1923 4.73128 56.2003 4.43713Z" fill="#F7941D"/>
<path d="M15.6413 4.4656C15.5833 3.68889 16.4996 2.88206 17.3816 3.17467C17.6424 3.24843 17.8762 3.39642 18.0549 3.60072C18.2335 3.80502 18.3492 4.05686 18.388 4.32575C18.4089 4.49066 18.3972 4.65807 18.3537 4.81846C18.2739 5.11342 18.1038 5.37587 17.8675 5.56885C17.6311 5.76183 17.3403 5.87564 17.0361 5.89424C16.7318 5.89824 16.4346 5.80155 16.1906 5.61913C15.9466 5.43672 15.7694 5.17875 15.6863 4.88516C15.6548 4.74758 15.6397 4.60675 15.6413 4.4656Z" fill="#F7941D"/>
<path d="M45.0224 7.40868C45.0264 7.58702 44.9951 7.76439 44.9304 7.93055C44.8657 8.0967 44.7688 8.24837 44.6453 8.37678C44.5218 8.5052 44.3742 8.60783 44.2109 8.67875C44.0477 8.74967 43.872 8.78747 43.6941 8.78998C43.3363 8.77819 42.9962 8.63053 42.7429 8.37688C42.4895 8.12323 42.3417 7.78253 42.3293 7.42374C42.3293 6.65564 43.0547 6.07902 43.6812 6.07041C44.3078 6.06181 45.0632 6.61476 45.0224 7.40868Z" fill="#FDB913"/>
<path d="M32.2203 7.40484C32.2236 7.72971 32.1117 8.0452 31.9046 8.29505C31.6975 8.54489 31.4086 8.71284 31.0894 8.76892C30.7741 8.82344 30.4498 8.7603 30.1778 8.59143C29.9058 8.42255 29.7049 8.15964 29.613 7.85236C29.5326 7.57774 29.5326 7.28572 29.613 7.0111C29.6744 6.82197 29.7767 6.64882 29.9128 6.50414C30.0489 6.35946 30.2153 6.24685 30.4 6.17441C30.5847 6.10197 30.7832 6.07152 30.9811 6.08524C31.1789 6.09896 31.3713 6.15651 31.5443 6.25375C31.7139 6.36642 31.8627 6.50763 31.9842 6.67115C32.1521 6.87727 32.2364 7.13922 32.2203 7.40484Z" fill="#FDB913"/>
<path d="M28.261 5.83547C27.7331 5.8828 27.1043 5.40516 27.085 4.6392C27.0657 3.91413 27.9434 3.17184 28.7824 3.61291C28.991 3.72325 29.167 3.88645 29.2931 4.08625C29.3936 4.24617 29.4502 4.42981 29.4574 4.61866C29.4645 4.80751 29.4219 4.99493 29.3339 5.16203C29.2377 5.36519 29.0856 5.53653 28.8955 5.65585C28.7054 5.77517 28.4852 5.83749 28.261 5.83547Z" fill="#FDB913"/>
<path d="M46.2926 5.83494C45.7368 5.88228 45.1167 5.31642 45.106 4.63868C45.106 4.06852 45.7326 3.46178 46.3119 3.47684C46.6158 3.49009 46.9035 3.61733 47.1181 3.83333C47.3328 4.04933 47.4586 4.33831 47.4707 4.64298C47.4748 4.79972 47.4472 4.95566 47.3896 5.10141C47.3319 5.24717 47.2455 5.37972 47.1354 5.49108C47.0253 5.60245 46.8939 5.69033 46.7491 5.74942C46.6042 5.80852 46.449 5.83761 46.2926 5.83494Z" fill="#FDB913"/>
<path d="M47.6383 2.51448C47.5932 2.0605 48.1554 1.56994 48.6147 1.57425C49.0739 1.57855 49.6018 1.99165 49.5803 2.55105C49.5769 2.80847 49.473 3.0543 49.2908 3.23574C49.1087 3.41717 48.8628 3.51974 48.6061 3.52141C48.345 3.51519 48.0969 3.40596 47.9157 3.21742C47.7345 3.02889 47.6348 2.77628 47.6383 2.51448Z" fill="#FDB913"/>
<path d="M25.9779 3.51973C25.7208 3.51806 25.4746 3.41519 25.2924 3.2333C25.1101 3.0514 25.0065 2.80502 25.0037 2.54723C25.008 2.29214 25.1104 2.04859 25.2895 1.86739C25.4687 1.68619 25.7106 1.58134 25.965 1.57473C26.3684 1.55751 26.9478 1.98137 26.9521 2.51496C26.9495 2.77585 26.8469 3.02575 26.6655 3.21282C26.4842 3.39989 26.2379 3.5098 25.9779 3.51973Z" fill="#FDB913"/>
<path d="M78.7853 48.5217C78.76 48.5394 78.731 48.5509 78.7005 48.5554C78.67 48.5599 78.6388 48.5573 78.6095 48.5477C78.5802 48.5381 78.5535 48.5218 78.5315 48.5002C78.5095 48.4785 78.4928 48.452 78.4828 48.4228C78.3969 48.2571 78.3047 48.0957 78.2124 47.9365C78.183 47.8746 78.1308 47.8265 78.0667 47.8024C78.0027 47.7783 77.9318 47.7801 77.8691 47.8074C77.824 47.8203 77.8176 47.8612 77.8154 47.8999C77.8154 48.0269 77.8154 48.1538 77.8154 48.2808C77.8208 48.3488 77.8208 48.4171 77.8154 48.4852C77.8154 48.5454 77.7575 48.554 77.706 48.5519C77.6545 48.5497 77.6116 48.5368 77.603 48.4766C77.6008 48.4472 77.6008 48.4177 77.603 48.3883V46.9231C77.603 46.8026 77.6223 46.7833 77.736 46.7833C77.9291 46.7833 78.1244 46.7833 78.3197 46.7833C78.3984 46.7818 78.4762 46.8009 78.5454 46.8386C78.6147 46.8763 78.6729 46.9314 78.7145 46.9984C78.7737 47.1059 78.7948 47.2303 78.7746 47.3514C78.7543 47.4725 78.6938 47.5832 78.6029 47.6654C78.5396 47.7141 78.4737 47.7593 78.4055 47.801C78.5064 48.0592 78.6759 48.2743 78.7853 48.5217ZM77.8176 47.2674C77.8176 47.3556 77.8176 47.4417 77.8176 47.5299C77.8176 47.5708 77.8369 47.6095 77.8819 47.6095C78.0069 47.6203 78.1325 47.6203 78.2575 47.6095C78.3213 47.6055 78.3821 47.581 78.4308 47.5395C78.4796 47.498 78.5136 47.4418 78.5278 47.3793C78.545 47.3332 78.5507 47.2836 78.5443 47.2349C78.538 47.1861 78.5199 47.1397 78.4915 47.0996C78.4631 47.0594 78.4254 47.0269 78.3816 47.0048C78.3378 46.9827 78.2893 46.9716 78.2403 46.9726H78.1244C77.7725 46.9576 77.8176 46.9253 77.8176 47.2674Z" fill="#AC332D"/>
</svg>
