<svg width="80" height="59" fill="none" xmlns="http://www.w3.org/2000/svg"><path d="M79.963 48.075a1.106 1.106 0 01-.094.303 1.824 1.824 0 01-1.545 1.108 1.732 1.732 0 01-1.678-.876c-.444-.701-.384-2.059.783-2.594.241-.11.502-.167.766-.168a1.787 1.787 0 011.648 1.037c.063.115.105.24.123.37.012.144.025.267.025.413a.806.806 0 010 .144c-.01.088-.01.168-.028.263zm-.14-.43a1.62 1.62 0 00-1-1.498 1.608 1.608 0 00-.621-.12 1.586 1.586 0 00-1.515 1.003c-.08.2-.118.416-.112.632.002.432.176.845.482 1.149a1.622 1.622 0 002.767-1.167z" fill="#AC332D"/><path d="M24.283 0c.047.085.14.097.214.145a.721.721 0 01.255.911.737.737 0 01-1.173.216.736.736 0 01-.075-.962.831.831 0 01.24-.215c.047-.028.116-.032.133-.1l.406.006zm26.359 0c.039.088.136.099.204.15a.727.727 0 01.01 1.18.668.668 0 01-.714.09.72.72 0 01-.453-.598.714.714 0 01.352-.695c.063-.043.149-.05.187-.127h.414z" fill="#FDB913"/><path d="M67.758 59.001c-.067 0 .069-.017 0-.017h-5.453a.965.965 0 00-.114.01.127.127 0 01-.047-.1v-1.56c0-.101.022-.12.118-.125.097-.004.176 0 .264 0h9.978a.4.4 0 00.378-.38 1.622 1.622 0 000-.177c0-.687-.013-1.375 0-2.06.013-.455-.225-.681-.644-.685H64.52c-.44 0-.88-.02-1.318-.048a.977.977 0 01-.873-.6 2.082 2.082 0 01-.18-.738V49a2.564 2.564 0 01.062-.613 1.535 1.535 0 01.7-.975 2.602 2.602 0 011.107-.357c.204-.022.41-.032.615-.03h10.125c.214 0 .214 0 .214.215v1.325c0 .138-.017.15-.152.153H64.754a.399.399 0 00-.404.357.91.91 0 00-.02.202v2.444c0 .216.055.289.263.364a.7.7 0 00.231.03H73.6c.136.003.272.02.405.052.7.155 1.063.592 1.073 1.306v1.444c0 .645 0 1.312-.01 1.97a3.315 3.315 0 01-.176.992c-.228.68-.721 1.018-1.412 1.106h-5.721c-.116 0 .118 0 0 0m-28.163-.001c-.957 0 .957 0 0 0-.097 0 .096.013 0 .02-.097.006.077-.017 0-.017h-5.884c-.058 0-.116 0-.174.012-.052-.043-.045-.103-.045-.161v-1.472a.561.561 0 010-.058c0-.056.026-.092.086-.094h10.24a.4.4 0 00.407-.383v-2.266a1.072 1.072 0 000-.116.528.528 0 00-.498-.525 3.262 3.262 0 00-.41-.022h-6.774c-.644 0-1.287-.028-1.931-.047a1.009 1.009 0 01-.97-.682 1.873 1.873 0 01-.14-.658v-3.559a2.418 2.418 0 01.06-.583 1.544 1.544 0 01.799-1.037 2.714 2.714 0 011.006-.3c.194-.02.389-.03.584-.03h10.036c.371 0 .333-.032.335.328v1.235c0 .1-.022.118-.12.122-.099.005-.176 0-.264 0h-9.843a.41.41 0 00-.406.357 1.092 1.092 0 00-.013.216v2.442c0 .215.052.288.262.361a.834.834 0 00.29.03h8.332c.264-.016.529.002.788.054.086.024.171.043.253.073a1.192 1.192 0 01.811 1.057c.004.078.004.156 0 .234 0 1.108-.01 2.216-.02 3.324a3.371 3.371 0 01-.169 1.042c-.214.682-.72 1.017-1.41 1.105h-5.218c-.112-.01.103-.004 0-.002zM29.27 55.758v-8.415c0-.38-.052-.344.34-.346h1.468a.481.481 0 01.303.047v11.522c0 .394.043.346-.341.348h-1.584c-.35 0-.257.048-.506-.215l-2.595-2.683-5.326-5.512c-.073-.075-.148-.148-.214-.215-.075.026-.056.081-.058.127v8.15c0 .394.04.35-.337.353h-1.773a.087.087 0 01-.067-.024.088.088 0 01-.027-.067V47.26c0-.325-.024-.305.3-.303h1.503a.51.51 0 01.407.17 1057.64 1057.64 0 003.768 3.836l4.451 4.518c.087.102.184.195.288.278zM37.4 43.26a4.57 4.57 0 01-3.396-1.397 5.195 5.195 0 01-.966-1.25 4.824 4.824 0 01.772-5.508 4.479 4.479 0 011.83-1.183 5.2 5.2 0 013.059-.142 3.89 3.89 0 011.716.95c.266.247.513.514.736.8a4.593 4.593 0 01.99 2.947 4.454 4.454 0 01-1.273 3.102c-.114.12-.227.243-.339.366a4 4 0 01-2.483 1.302c-.058 0-.118.01-.176.013h-.47zM0 46.964h2.065a.241.241 0 01.259.177c.395.938.793 1.876 1.193 2.814l2.614 6.136c.03.071.062.142.103.233a.545.545 0 00.154-.271c.511-1.188 1.02-2.377 1.526-3.566l2.232-5.215c.023-.054.047-.108.068-.161a.155.155 0 01.161-.101H12.4c.017 0 .034.017.066.032a.763.763 0 01-.077.236l-2.517 6.143-2.103 5.164c-.028.073-.064.144-.09.215a.14.14 0 01-.155.103H5.15c-.337 0-.277.043-.401-.262a467.6 467.6 0 01-1.176-2.885l-3.455-8.48c-.036-.09-.069-.18-.118-.312zM48.41 31.33c-.016 1.089-.291 1.992-.92 2.767a4.076 4.076 0 01-4.663 1.213c-.99-.396-2.159-1.493-2.491-2.838a4.18 4.18 0 01-.024-2.007 3.287 3.287 0 01.966-1.648l.429-.402a3.766 3.766 0 013.073-1.007c.763.08 1.484.386 2.073.88.236.19.457.4.66.626.442.49.731 1.098.831 1.751.046.219.068.442.067.665zm-13.778.2a3.897 3.897 0 01-1.13 2.715 4.14 4.14 0 01-1.718 1.144 4.041 4.041 0 01-4.636-1.56 4.065 4.065 0 01-.649-1.615 4.589 4.589 0 01.063-1.896 3.23 3.23 0 01.723-1.362c.264-.303.56-.576.882-.815a3.872 3.872 0 012.79-.732c.832.093 1.61.461 2.212 1.046.086.08.167.166.255.243.824.714 1.21 1.62 1.208 2.831zM54.34 51.369a.75.75 0 00.214-.215c1.028-1.259 2.06-2.515 3.077-3.785a.677.677 0 01.614-.29c.644.021 1.288 0 1.931 0a.396.396 0 01.239.03.961.961 0 01-.174.234l-2.71 3.22c-.69.817-1.378 1.63-2.065 2.45-.238.284-.195.155-.195.55v5.03c0 .364.032.323-.335.326H53.35a.099.099 0 01-.113-.104v-5.067a1.621 1.621 0 010-.204.483.483 0 00-.144-.396c-.786-.914-1.564-1.835-2.343-2.752l-2.666-3.134a1.557 1.557 0 01-.124-.164.041.041 0 01.012-.056.04.04 0 01.02-.006.89.89 0 01.146 0h2.172a.427.427 0 01.373.174c1.08 1.24 2.162 2.48 3.247 3.718.128.155.265.302.41.44zm-4.03-29.13a3.304 3.304 0 012.242.832c.135.117.264.237.389.362.506.5.818 1.166.88 1.876.044.431.02.867-.071 1.291a3.49 3.49 0 01-1.007 1.807 3.475 3.475 0 01-1.852.917 3.394 3.394 0 01-3.055-.988 3.56 3.56 0 01-1.045-1.867 3.62 3.62 0 010-1.433 2.786 2.786 0 01.798-1.476c.17-.164.337-.327.513-.484a3.173 3.173 0 012.208-.837zm-25.828.001a3.233 3.233 0 012.36.946l.277.26a3.028 3.028 0 01.949 2.72c-.127 1.104-.704 1.936-1.58 2.582a3.332 3.332 0 01-2.504.585 3.375 3.375 0 01-1.787-.816 3.46 3.46 0 01-1.202-2.347 3.692 3.692 0 01.12-1.485c.14-.462.392-.882.734-1.222.105-.103.215-.215.318-.305a3.307 3.307 0 012.315-.919z" fill="#AC332D"/><path d="M33.905 24.588a3.35 3.35 0 01.809-2.148 3.335 3.335 0 012-1.12 3.413 3.413 0 012.04.215c.224.1.432.23.62.386.311.257.586.555.818.886a3.249 3.249 0 01-.32 4.088c-.103.108-.201.215-.304.32a2.9 2.9 0 01-2.588.88c-1.178-.14-2.013-.798-2.629-1.77a3.11 3.11 0 01-.446-1.736z" fill="#F7941D"/><path d="M19.117 17.167a2.74 2.74 0 011.981.72c.125.113.247.216.367.34a2.554 2.554 0 01.796 2.096 3.048 3.048 0 01-1.446 2.457 2.832 2.832 0 01-2.878.215c-1.11-.51-1.68-1.422-1.753-2.642-.03-.362.008-.727.11-1.075.061-.23.16-.448.291-.646a3.31 3.31 0 011.977-1.42 3.23 3.23 0 01.555-.045zm39.513 3.017a2.998 2.998 0 01-.794 2.117 2.982 2.982 0 01-2.043.956 2.655 2.655 0 01-1.4-.254c-.926-.476-1.566-1.194-1.778-2.24a3.002 3.002 0 01.042-1.4c.109-.4.321-.763.616-1.053.174-.172.354-.34.539-.501.31-.274.682-.467 1.084-.562a2.916 2.916 0 012.478.489c.219.163.42.348.6.553.384.425.61.968.645 1.54.017.12.01.24.01.355z" fill="#AC332D"/><path d="M42.647 16.405c.69-.02 1.364.22 1.886.674.182.149.352.313.506.49.334.383.541.86.595 1.365a3.166 3.166 0 01-.644 2.433 2.866 2.866 0 01-1.717 1.041 2.824 2.824 0 01-1.99-.277 3.09 3.09 0 01-1.585-2.001 2.893 2.893 0 01.073-1.736c.12-.333.316-.634.571-.878.14-.138.28-.276.43-.407a2.653 2.653 0 011.875-.704zm-10.817.001a2.724 2.724 0 012.002.79c.099.094.197.189.298.281.453.43.727 1.016.768 1.64a3.128 3.128 0 01-.516 1.968 3.115 3.115 0 01-1.617 1.231 2.93 2.93 0 01-3.017-.703 2.831 2.831 0 01-.88-1.846 3.345 3.345 0 01.052-1.113c.05-.24.139-.47.264-.682a3.29 3.29 0 011.79-1.444c.274-.097.565-.138.856-.122zM16.358 52.971v5.766c0 .179-.013.192-.176.192h-1.85c-.133 0-.15-.02-.154-.153V47.388c0-.43-.052-.383.395-.385h1.701a.08.08 0 01.078.075v.262l.006 5.631zM27.115 17.38a2.57 2.57 0 01-1.695-.593 2.583 2.583 0 01-.897-1.56 2.836 2.836 0 01.047-1.28c.099-.36.288-.689.55-.955.175-.184.369-.35.579-.494a2.51 2.51 0 013.133.27l.236.216a2.255 2.255 0 01.71 1.936 2.702 2.702 0 01-1.167 1.986c-.43.324-.958.491-1.496.473zm20.124.01c-1.058.047-2.204-1.063-2.39-2.21a2.485 2.485 0 01.143-1.47c.084-.198.202-.38.348-.54.184-.189.371-.376.573-.546a2.637 2.637 0 014.1 1.319 2.749 2.749 0 01-.399 2.354c-.515.733-1.244 1.071-2.375 1.093zm-24.111-4.549c-1.013.024-2.075-.86-2.146-2.087a2.616 2.616 0 01.071-.875c.056-.21.152-.405.283-.577.234-.317.535-.577.882-.762a2.077 2.077 0 012.268.18c.196.147.377.312.541.494a1.915 1.915 0 01.472 1.581 2.403 2.403 0 01-1.815 2.006 3.45 3.45 0 01-.556.04zm30.454-2.297a2.252 2.252 0 01-1.774 2.254c-.471.115-.967.06-1.402-.152a2.308 2.308 0 01-1.31-1.636c-.153-.761 0-1.441.613-1.973.118-.103.214-.215.352-.307a2.078 2.078 0 012.317-.16c.311.169.582.401.797.683.288.366.432.825.407 1.29z" fill="#F7941D"/><path d="M59.724 14.184c.482-.01.952.15 1.328.452.156.12.3.254.43.402.277.32.44.725.463 1.15a2.27 2.27 0 01-1.127 2.198 2.27 2.27 0 01-3-.8 2.285 2.285 0 01-.343-1.076 1.882 1.882 0 01.558-1.521c.098-.097.195-.192.298-.282.38-.348.879-.535 1.393-.523zm-42.409 2.202a2.293 2.293 0 01-1.841 2.246 2.2 2.2 0 01-1.647-.34 2.21 2.21 0 01-.928-1.407 2.476 2.476 0 010-.99 1.51 1.51 0 01.152-.443c.449-.768 1.073-1.246 2.002-1.27a2.033 2.033 0 011.442.547c.065.058.127.123.191.18a1.837 1.837 0 01.629 1.477z" fill="#AC332D"/><path d="M37.26 11.663a2.055 2.055 0 012.048 1.562 1.926 1.926 0 01-.446 1.777c-.07.082-.144.157-.215.234a1.753 1.753 0 01-1.551.517 2.067 2.067 0 01-1.565-1.076 2.022 2.022 0 01.762-2.75 2.14 2.14 0 01.968-.264z" fill="#FDB913"/><path d="M61.359 12.694a1.461 1.461 0 01.53-1.043l.214-.198a1.796 1.796 0 012.026-.194c.255.148.48.343.661.575.207.265.323.59.33.925a1.882 1.882 0 01-1.366 1.984 1.835 1.835 0 01-1.123-.037c-.76-.28-1.272-1.022-1.272-2.011zm-47.929.196a1.94 1.94 0 01-.562 1.342 1.93 1.93 0 01-1.336.57 1.895 1.895 0 01-1.75-1.22 1.909 1.909 0 01-.126-.74c0-.998.96-1.822 1.889-1.826.929-.005 1.974.927 1.886 1.874z" fill="#AC332D"/><path d="M32.136 10.457c-.087-1.076 1.142-2.121 2.346-1.721.083.029.163.065.24.107.3.17.56.4.766.676.194.263.294.583.284.91a1.868 1.868 0 01-1.627 1.861 1.775 1.775 0 01-1.84-1.011 1.789 1.789 0 01-.169-.725v-.097zm6.642.004a1.51 1.51 0 01.506-1.209c.132-.13.276-.249.43-.353a1.764 1.764 0 012.025.164 1.818 1.818 0 01-.893 3.234 1.808 1.808 0 01-1.336-.37 1.771 1.771 0 01-.732-1.466z" fill="#FDB913"/><path d="M56.584 7.282a1.59 1.59 0 01-.776 1.402 1.686 1.686 0 01-2.524-1.017 1.557 1.557 0 010-.842.97.97 0 01.088-.247 1.897 1.897 0 011.17-.953 1.498 1.498 0 011.16.153c.395.206.693.559.83.983.038.17.055.346.052.52zM19.682 5.594c.329-.01.65.101.903.312.154.123.298.257.43.403.206.239.321.544.323.86a1.725 1.725 0 01-1.113 1.662 1.642 1.642 0 01-2.232-1.376 1.787 1.787 0 01.047-.699 1.704 1.704 0 011.642-1.162zM56.2 4.437a1.077 1.077 0 01.384-.86c.065-.059.127-.123.194-.18a1.286 1.286 0 011.429-.126c.205.117.383.275.523.465.158.215.238.477.226.744a1.371 1.371 0 01-1.844 1.321 1.415 1.415 0 01-.912-1.364zm-40.559.029c-.058-.777.859-1.584 1.74-1.291a1.401 1.401 0 011.007 1.15c.02.166.01.333-.034.493a1.462 1.462 0 01-1.318 1.076 1.382 1.382 0 01-1.35-1.009 1.789 1.789 0 01-.045-.42z" fill="#F7941D"/><path d="M45.022 7.409a1.355 1.355 0 01-.811 1.27 1.37 1.37 0 01-.517.111 1.41 1.41 0 01-1.365-1.366c0-.768.726-1.345 1.352-1.354.627-.008 1.382.545 1.341 1.339zM32.22 7.405a1.373 1.373 0 01-1.13 1.364 1.306 1.306 0 01-1.477-.917 1.497 1.497 0 010-.84 1.347 1.347 0 011.368-.927c.198.014.39.072.563.169.17.112.319.254.44.417.168.206.252.468.236.734zm-3.959-1.57c-.528.048-1.157-.43-1.176-1.196-.02-.725.858-1.467 1.697-1.026.209.11.385.273.511.473a1.078 1.078 0 01.04 1.076 1.178 1.178 0 01-1.072.673zm18.032 0c-.556.047-1.176-.519-1.187-1.196 0-.57.627-1.177 1.206-1.162a1.21 1.21 0 011.159 1.166 1.165 1.165 0 01-.722 1.106c-.145.06-.3.089-.456.086zm1.345-3.321c-.045-.453.517-.944.977-.94.459.005.987.418.965.977a.985.985 0 01-.974.97.99.99 0 01-.968-1.007zM25.978 3.52a.98.98 0 01-.974-.973.99.99 0 01.961-.972c.403-.017.983.406.987.94a1.017 1.017 0 01-.974 1.005z" fill="#FDB913"/><path d="M78.785 48.522a.198.198 0 01-.302-.1 11.793 11.793 0 00-.27-.485.264.264 0 00-.344-.13c-.045.013-.051.054-.054.093v.38a1.17 1.17 0 010 .205c0 .06-.058.069-.109.067-.052-.002-.094-.015-.103-.075a.591.591 0 010-.089v-1.465c0-.12.02-.14.133-.14h.584a.454.454 0 01.395.215.546.546 0 01-.112.667 2.24 2.24 0 01-.197.136c.1.258.27.473.38.72zm-.967-1.255v.263c0 .04.019.08.064.08.125.01.25.01.375 0a.296.296 0 00.27-.23.301.301 0 00-.287-.407h-.116c-.352-.015-.306-.048-.306.294z" fill="#AC332D"/></svg>